Coordinates
version=1
nRows=13
nColumns=33
inDegrees=yes

Units are S.I. units (second, meters, Newtons, ...)
Angles are in degrees.

endheader
time	ground_thorax_rot_x	ground_thorax_rot_y	ground_thorax_rot_z	ground_thorax_tx	ground_thorax_ty	ground_thorax_tz	clav_prot_r	clav_elev_r	scapula_abduction_r	scapula_elevation_r	scapula_upward_rot_r	scapula_winging_r	shoulder_elv_r	plane_of_elev_r	axial_rot_r	elbow_flexion_r	pro_sup_r	wrist_flex_r	wrist_dev_r	clav_prot_l	clav_elev_l	scapula_abduction_l	scapula_elevation_l	scapula_upward_rot_l	scapula_winging_l	shoulder_elv_l	plane_of_elev_l	axial_rot_l	elbow_flexion_l	pro_sup_l	wrist_flex_l	wrist_dev_l	
4.1000	0.643952	-41.868126	89.999874	31.097449	774.611927	-34.185000	25.893228	-45.000000	40.252758	-45.000000	-45.000000	-3722.872917	-2983.730593	141.652935	-180.000000	1789.291262	425.953112	20.319894	14.851234	-6.365146	35.797559	-27.579263	-45.000000	-41.642706	-1341.319049	-3701.500408	141.212337	180.000000	355.261041	-324.136283	14.730258	-17.821263	
4.1100	0.663622	-41.841020	89.999774	29.955007	774.352022	-34.178023	25.920742	-45.000000	40.432211	-45.000000	-45.000000	-3722.971112	-2983.601470	141.663221	-180.000000	1789.204792	425.518356	20.180824	14.871961	-6.461356	35.899649	-27.512498	-45.000000	-41.647183	-1341.195749	-3701.340457	141.204367	180.000000	355.186600	-324.588937	14.685787	-17.755579	
4.1200	0.684461	-41.808203	89.999596	28.736035	774.107980	-34.169452	25.943289	-45.000000	40.642293	-45.000000	-45.000000	-3723.081443	-2983.475784	141.677254	-180.000000	1789.127514	425.132288	20.045557	14.879894	-6.559200	36.006439	-27.455284	-45.000000	-41.669394	-1341.065557	-3701.185593	141.194003	180.000000	355.117541	-325.021371	14.640184	-17.694014	
4.1300	0.692392	-41.764110	89.999276	27.348762	773.901833	-34.156325	26.024332	-45.000000	40.849054	-45.000000	-44.999999	-3723.188854	-2983.303713	141.692940	-180.000000	1789.055218	424.951744	19.954834	14.879186	-6.647338	36.051469	-27.435396	-45.000000	-41.855749	-1340.977741	-3701.024779	141.189512	180.000000	355.074879	-325.405953	14.611918	-17.665018	
4.1400	0.694278	-41.716154	89.998704	25.785223	773.733611	-34.140504	26.134732	-45.000000	41.069695	-45.000000	-44.999999	-3723.301295	-2983.111636	141.712271	-180.000000	1788.992366	424.917911	19.889748	14.863020	-6.733312	36.069504	-27.434742	-45.000000	-42.112587	-1340.899660	-3700.854448	141.188190	180.000000	355.047325	-325.729499	14.588659	-17.657213	
4.1500	0.690736	-41.667053	89.997679	24.025125	773.607512	-34.123916	26.269036	-45.000000	41.306220	-45.000000	-44.999998	-3723.418968	-2982.903940	141.736103	-180.000000	1788.937732	425.010493	19.846483	14.832372	-6.814202	36.065788	-27.450712	-45.000000	-42.428422	-1340.824991	-3700.671617	141.189531	180.000000	355.034382	-325.978903	14.566508	-17.668637	
4.1600	0.684523	-41.621561	89.995840	22.070269	773.523715	-34.110025	26.412020	-45.000000	41.557208	-45.000000	-44.999996	-3723.543317	-2982.691082	141.763075	-180.000000	1788.890788	425.175187	19.814967	14.789143	-6.895243	36.059251	-27.471406	-45.000000	-42.746197	-1340.738063	-3700.471885	141.193487	180.000000	355.027873	-326.145965	14.539441	-17.691493	
4.1700	0.677219	-41.581560	89.992552	19.931287	773.482298	-34.102826	26.545888	-45.000000	41.822000	-45.000000	-44.999992	-3723.673456	-2982.479489	141.792087	-180.000000	1788.847494	425.360640	19.789105	14.739922	-6.976796	36.066113	-27.487311	-45.000000	-43.035146	-1340.635645	-3700.255196	141.201129	180.000000	355.021726	-326.230140	14.502769	-17.717260	
4.1800	0.666670	-41.545913	89.986649	17.616546	773.486124	-34.105874	26.669317	-45.000000	42.091023	-45.000000	-44.999986	-3723.805430	-2982.263027	141.821770	-180.000000	1788.803826	425.543095	19.770548	14.691891	-7.057408	36.085850	-27.500079	-45.000000	-43.293455	-1340.520528	-3700.021923	141.215386	180.000000	355.013897	-326.235895	14.459035	-17.744160	
4.1900	0.651568	-41.511124	89.976112	15.133188	773.540059	-34.121845	26.766295	-45.000000	42.365493	-45.000000	-44.999975	-3723.933004	-2982.035685	141.856136	-180.000000	1788.756290	425.713306	19.763554	14.651795	-7.130857	36.126374	-27.508614	-45.000000	-43.510605	-1340.403401	-3699.776691	141.245393	180.000000	354.999409	-326.173086	14.408384	-17.766996	
4.2000	0.628649	-41.477463	89.957134	12.487671	773.650048	-34.152278	26.847442	-45.000000	42.639648	-45.000000	-44.999955	-3724.054901	-2981.795837	141.894303	-180.000000	1788.707132	425.865863	19.771738	14.621854	-7.195763	36.179170	-27.521019	-45.000000	-43.706214	-1340.283937	-3699.523940	141.289667	180.000000	354.979986	-326.052427	14.356799	-17.788543	
4.2100	0.591863	-41.445970	89.923425	9.686888	773.822217	-34.197472	26.920062	-45.000000	42.909258	-45.000000	-44.999919	-3724.172907	-2981.548284	141.933144	-180.000000	1788.655979	425.997161	19.794609	14.603084	-7.249492	36.235773	-27.541825	-45.000000	-43.895780	-1340.159031	-3699.269157	141.341647	180.000000	354.958799	-325.885949	14.308267	-17.811362	
4.2200	0.529023	-41.418450	89.862246	6.738120	774.062421	-34.256680	27.006030	-45.000000	43.165840	-45.000000	-44.999854	-3724.289113	-2981.298096	141.969085	-180.000000	1788.603913	426.100841	19.829321	14.594415	-7.286180	36.272942	-27.589798	-45.000000	-44.118726	-1340.018018	-3699.019766	141.388437	180.000000	354.942227	-325.685731	14.271625	-17.843169	
